Nederlands of Engels gesproken
English or Dutch spoken

Met bekende Nederlandse stemmen
Een jaloerse koningin probeert haar mooie stiefdochter Snow White kwijt te raken. Ze huurt een jager in om haar te vermoorden, maar hij kan het niet over z'n hart verkrijgen om haar ook echt te doden. Ze besluit te schuilen bij zeven dwergen in hun huis in de bossen. De koningin neemt hier geen genoegen mee en probeert haar stiefdochter alsnog om te brengen.

With the voices of Adriana Caselotti, Harry Stockwell and Eddie Collins
Snow White, pursued by a jealous queen, hides with the Dwarfs; the queen feeds her a poison apple, but Prince Charming awakens her with a kiss. 

------------------ Dutch Friends ------------------
You can find my Friends at: http://www.Film-Test.nl 
------ They got my dutchs subs ---- and more ------

General:

Complete name                    : Snow White and the Seven Dwarfs\Snow White and the Seven Dwarfs.avi
Format                           : AVI
Format/Info                      : Audio Video Interleave
File size                        : 1.56 GiB
Duration                         : 1h 20mn
Overall bit rate                 : 2 794 Kbps

Video:

Format                           : MPEG-4 Visual
Format profile                   : Simple@L3
Format settings, BVOP            : No
Format settings, QPel            : No
Format settings, GMC             : No warppoints
Format settings, Matrix          : Default (H.263)
Codec ID                         : XVID
Codec ID/Hint                    : XviD
Duration                         : 1h 20mn
Bit rate                         : 2 009 Kbps
Width                            : 640 pixels
Height                           : 480 pixels
Display aspect ratio             : 4:3
Frame rate                       : 25.000 fps
Color space                      : YUV
Chroma subsampling               : 4:2:0
Bit depth                        : 8 bits
Scan type                        : Progressive
Bits/(Pixel*Frame)               : 0.262
Stream size                      : 1.12 GiB (72%)
Writing library                  : XviD 1.1.2 (UTC 2006-11-01)

Audio's:

Format                           : AC-3
Format/Info                      : Audio Coding 3
Mode extension                   : CM (complete main)
Codec ID                         : 2000
Duration                         : 1h 20mn
Bit rate mode                    : Constant
Bit rate                         : 384 Kbps
Channel(s)                       : 6 channels
Channel positions                : Front: L C R, Side: L R, LFE
Sampling rate                    : 48.0 KHz
Bit depth                        : 16 bits
Stream size                      : 220 MiB (14%)
Alignment                        : Aligned on interleaves
Interleave, duration             : 32 ms (0.80 video frame)
Interleave, preload duration     : 416 ms



